#!OML:ASF H:\MichaelJackson\Top Level 1\Subject 1\Session 1\male.ASF
:FULLY-SPECIFIED
:DEGREES
659
root 19.5682 16.3916 6.09826 8.29758 -6.44377 -8.72977
lowerback 4.64897 1.96864 1.52863
upperback 1.29372 2.7435 3.34588
thorax -1.36736 1.36661 2.42358
lowerneck -10.0616 1.99854 6.12297
upperneck 15.5949 2.67638 -5.84012
head 6.5563 1.1768 -2.65512
rclavicle 1.22128e-014 8.29926e-015
rhumerus -14.5051 -4.38595 -61.4149
rradius 57.7746
rwrist 9.94102
rhand -60.1665 -46.394
rfingers 7.12502
rthumb -32.3103 -73.5372
lclavicle 1.22128e-014 8.29926e-015
lhumerus -55.7964 0.396912 92.1674
lradius 59.822
lwrist 10.2253
lhand -2.0202 12.2656
lfingers 7.12502
lthumb 23.654 40.8304
rfemur -20.6299 -4.68452 17.911
rtibia 63.5933
rfoot 20.7108 29.8619
rtoes 26.1318
lfemur -43.5545 12.7213 -14.5273
ltibia 38.3566
lfoot -7.68803 19.6056
ltoes 45.0816
660
root 19.6138 16.4059 6.2012 8.45046 -6.84401 -8.07331
lowerback 5.10778 2.1604 0.889898
upperback 1.46066 2.97238 3.12238
thorax -1.47968 1.48144 2.52288
lowerneck -10.1171 2.03338 6.12211
upperneck 15.1887 2.74364 -6.06543
head 6.44374 1.19085 -2.7182
rclavicle -1.51449e-014 3.11595e-014
rhumerus -15.1842 -5.69153 -62.1769
rradius 59.9786
rwrist 9.66234
rhand -62.5001 -61.9917
rfingers 7.12502
rthumb -34.5285 -88.6566
lclavicle -1.51449e-014 3.11595e-014
lhumerus -56.062 -0.200451 91.555
lradius 62.5787
lwrist 8.71706
lhand -2.1209 11.5891
lfingers 7.12502
lthumb 23.5574 40.1663
rfemur -23.4236 -3.3059 16.6599
rtibia 66.1761
rfoot 24.9419 29.6096
rtoes 27.2384
lfemur -43.3079 11.7162 -14.9161
ltibia 38.5547
lfoot -8.18977 19.6006
ltoes 45.4058
661
root 19.6547 16.4192 6.3016 8.53598 -7.24132 -7.36865
lowerback 5.60541 2.38075 0.211586
upperback 1.65587 3.2295 2.85144
thorax -1.58786 1.60994 2.58995
lowerneck -10.1236 2.04921 6.12149
upperneck 14.7066 2.7686 -6.20367
head 6.29539 1.19287 -2.75644
rclavicle 2.05991e-014 2.33075e-014
rhumerus -16.0861 -6.70931 -62.914
rradius 62.2547
rwrist 9.51982
rhand -62.7939 -73.3433
rfingers 7.12502
rthumb -34.8074 -260.056
lclavicle 2.05991e-014 2.33075e-014
lhumerus -56.2934 -0.918971 90.7399
lradius 65.4327
lwrist 6.94773
lhand -3.22779 10.3256
lfingers 7.12502
lthumb 22.4953 39.0353
rfemur -26.176 -1.73309 15.3552
rtibia 68.5577
rfoot 27.9727 29.2688
rtoes 27.3851
lfemur -43.011 10.7834 -15.3781
ltibia 38.7193
lfoot -8.63302 19.5091
ltoes 45.6032
662
root 19.6912 16.4324 6.40065 8.56385 -7.58237 -6.64968
lowerback 6.12502 2.60323 -0.468145
upperback 1.86974 3.48086 2.55039
thorax -1.68964 1.7349 2.62354
lowerneck -10.0877 2.05279 6.11394
upperneck 14.1921 2.7643 -6.25708
head 6.12701 1.18807 -2.76872
rclavicle 1.04238e-014 -3.18055e-014
rhumerus -17.1365 -7.42981 -63.6716
rradius 64.5112
rwrist 9.23712
rhand -62.1155 -76.619
rfingers 7.12502
rthumb -34.1634 -256.634
lclavicle 1.04238e-014 -3.18055e-014
lhumerus -56.4613 -1.67614 89.6717
lradius 68.343
lwrist 5.03564
lhand -5.487 8.57592
lfingers 7.12502
lthumb 20.3254 37.5323
rfemur -28.8585 -0.0421373 14.0353
rtibia 70.706
rfoot 29.7424 28.8637
rtoes 26.7487
lfemur -42.671 9.89363 -15.8804
ltibia 38.8528
lfoot -9.04544 19.3955
ltoes 45.7357
663
root 19.7239 16.4454 6.49936 8.55338 -7.81645 -5.95034
lowerback 6.64119 2.79275 -1.12089
upperback 2.10009 3.68195 2.25133
thorax -1.77028 1.83385 2.64573
lowerneck -10.0403 2.0637 6.07025
upperneck 13.6903 2.7659 -6.24197
head 5.96032 1.18971 -2.75287
rclavicle 1.79652e-014 1.58531e-014
rhumerus -18.2251 -7.78367 -64.4953
rradius 66.6992
rwrist 8.5493
rhand -60.9868 -73.1583
rfingers 7.12502
rthumb -33.0908 -259.861
lclavicle 1.79652e-014 1.58531e-014
lhumerus -56.5121 -2.33225 88.3126
lradius 71.2625
lwrist 3.09001
lhand -8.94501 6.46202
lfingers 7.12502
lthumb 16.9994 35.7382
rfemur -31.4589 1.68609 12.7394
rtibia 72.5988
rfoot 30.3496 28.3562
rtoes 25.6554
lfemur -42.3164 9.03598 -16.4049
ltibia 38.9638
lfoot -9.40862 19.3113
ltoes 45.7723
664
root 19.7534 16.4581 6.59858 8.52815 -7.89633 -5.30993
lowerback 7.13241 2.9355 -1.68841
upperback 2.33018 3.82002 1.96518
thorax -1.83014 1.90049 2.63803
lowerneck -9.962 2.07707 6.00971
upperneck 13.2245 2.77074 -6.18788
head 5.79969 1.19543 -2.72225
rclavicle -1.69215e-014 1.25234e-014
rhumerus -19.3227 -7.83065 -65.4041
rradius 68.7818
rwrist 7.47788
rhand -59.3673 -66.0323
rfingers 7.12502
rthumb -31.5493 -266.672
lclavicle -1.69215e-014 1.25234e-014
lhumerus -56.403 -2.83947 86.6344
lradius 74.1301
lwrist 1.24822
lhand -13.4243 4.13981
lfingers 7.12502
lthumb 12.6841 33.7346
rfemur -33.9622 3.37853 11.5158
rtibia 74.1558
rfoot 30.0454 27.6373
rtoes 24.4685
lfemur -41.9123 8.19808 -16.9189
ltibia 38.9175
lfoot -9.64558 19.2857
ltoes 45.7424
665
root 19.78 16.4703 6.69866 8.50698 -7.77851 -4.764
lowerback 7.58678 3.01109 -2.12438
upperback 2.55513 3.87411 1.70983
thorax -1.86339 1.92451 2.59687
lowerneck -9.86657 2.09584 5.93298
upperneck 12.8185 2.78784 -6.12648
head 5.65573 1.20699 -2.6865
rclavicle -1.22004e-014 8.44835e-015
rhumerus -20.3815 -7.61639 -66.4044
rradius 70.6806
rwrist 6.25155
rhand -57.2557 -58.2866
rfingers 7.12502
rthumb -29.5356 -445.957
lclavicle -1.22004e-014 8.44835e-015
lhumerus -56.0826 -3.12453 84.62
lradius 76.9045
lwrist -0.364618
lhand -18.5687 1.73364
lfingers 7.12502
lthumb 7.72142 31.5727
rfemur -36.3736 4.97677 10.411
rtibia 75.4184
rfoot 29.0028 26.6347
rtoes 23.25
lfemur -41.5442 7.37709 -17.388
ltibia 38.8733
lfoot -9.83918 19.2895
ltoes 45.6272
666
root 19.808 16.5163 6.79759 8.49813 -7.43731 -4.32907
lowerback 7.99942 3.01318 -2.40616
upperback 2.77165 3.84062 1.49651
thorax -1.86911 1.90447 2.5232
lowerneck -9.75541 2.11767 5.84356
upperneck 12.4772 2.81699 -6.08265
head 5.53041 1.22274 -2.65409
rclavicle -3.62782e-015 -6.4605e-015
rhumerus -21.3821 -7.20995 -67.4738
rradius 72.3172
rwrist 5.1592
rhand -54.7607 -51.2075
rfingers 7.12502
rthumb -27.1513 -439.274
lclavicle -3.62782e-015 -6.4605e-015
lhumerus -55.4958 -3.14058 82.2729
lradius 79.5469
lwrist -1.64926
lhand -23.9149 -0.606073
lfingers 7.12502
lthumb 2.55951 29.3583
rfemur -38.5508 6.46313 9.46551
rtibia 76.2026
rfoot 27.5204 25.2525
rtoes 22.0808
lfemur -41.11 6.57605 -17.8084
ltibia 38.7535
lfoot -10.0056 19.2866
ltoes 45.3965
667
root 19.8287 16.5266 6.90013 8.49623 -6.86803 -4.00904
lowerback 8.37112 2.94112 -2.53392
upperback 2.98262 3.72145 1.33485
thorax -1.84575 1.8416 2.42802
lowerneck -9.62944 2.13998 5.7335
upperneck 12.1968 2.8571 -6.0686
head 5.42247 1.24103 -2.62755
rclavicle -1.53561e-014 -1.11319e-014
rhumerus -22.3141 -6.66634 -68.5839
rradius 73.6411
rwrist 4.34499
rhand -52.0181 -44.9748
rfingers 7.12502
rthumb -24.5248 -433.424
lclavicle -1.53561e-014 -1.11319e-014
lhumerus -54.6116 -2.84898 79.6238
lradius 82.036
lwrist -2.45094
lhand -29.0588 -2.81511
lfingers 7.12502
lthumb -2.40846 27.151
rfemur -40.7218 7.79925 8.64147
rtibia 76.8167
rfoot 25.8224 23.5387
rtoes 21.1639
lfemur -40.826 5.82249 -18.141
ltibia 38.7396
lfoot -10.0953 19.2179
ltoes 45.0333
668
root 19.8459 16.5348 7.00441 8.4945 -6.07835 -3.78677
lowerback 8.70904 2.80985 -2.52015
upperback 3.18475 3.53691 1.21343
thorax -1.80293 1.74654 2.30447
lowerneck -9.49114 2.15136 5.61532
upperneck 11.9749 2.88957 -6.07958
head 5.33053 1.25378 -2.60875
rclavicle -3.06128e-014 -1.00386e-014
rhumerus -23.1943 -6.05115 -69.7122
rradius 74.6391
rwrist 3.76028
rhand -49.2391 -39.4675
rfingers 7.12502
rthumb -21.8586 -428.253
lclavicle -3.06128e-014 -1.00386e-014
lhumerus -53.3951 -2.26619 76.7182
lradius 84.34
lwrist -2.64128
lhand -33.7443 -4.87492
lfingers 7.12502
lthumb -6.93278 24.9916
rfemur -42.7486 9.00298 7.93813
rtibia 77.0864
rfoot 24.186 21.4662
rtoes 20.8026
lfemur -40.5714 5.11812 -18.4057
ltibia 38.7469
lfoot -10.1343 19.0383
ltoes 44.503
